<svg xmlns="http://www.w3.org/2000/svg" width="256" height="256" viewBox="0 0 256 256" fill="none">
  <defs>
    <linearGradient id="motorBody" x1="44" y1="70" x2="196" y2="194" gradientUnits="userSpaceOnUse">
      <stop stop-color="#163968"/>
      <stop offset="0.5" stop-color="#1C5A9D"/>
      <stop offset="1" stop-color="#21A1D8"/>
    </linearGradient>
    <linearGradient id="motorFace" x1="176" y1="88" x2="228" y2="168" gradientUnits="userSpaceOnUse">
      <stop stop-color="#D8F3FF"/>
      <stop offset="1" stop-color="#78C8F7"/>
    </linearGradient>
    <linearGradient id="motorTop" x1="78" y1="48" x2="146" y2="96" gradientUnits="userSpaceOnUse">
      <stop stop-color="#88E3FF"/>
      <stop offset="1" stop-color="#3DB3F2"/>
    </linearGradient>
  </defs>

  <g>
    <rect x="46" y="78" width="134" height="102" rx="28" fill="url(#motorBody)"/>
    <rect x="64" y="92" width="10" height="74" rx="5" fill="#7AD4FF" fill-opacity="0.55"/>
    <rect x="84" y="92" width="10" height="74" rx="5" fill="#7AD4FF" fill-opacity="0.55"/>
    <rect x="104" y="92" width="10" height="74" rx="5" fill="#7AD4FF" fill-opacity="0.55"/>
    <rect x="124" y="92" width="10" height="74" rx="5" fill="#7AD4FF" fill-opacity="0.55"/>
    <rect x="144" y="92" width="10" height="74" rx="5" fill="#7AD4FF" fill-opacity="0.55"/>

    <rect x="76" y="56" width="72" height="28" rx="12" fill="url(#motorTop)"/>
    <rect x="94" y="42" width="36" height="18" rx="8" fill="#B6F0FF"/>

    <rect x="176" y="88" width="42" height="82" rx="20" fill="url(#motorFace)"/>
    <circle cx="196.5" cy="129" r="17" fill="#1B4E86"/>
    <circle cx="196.5" cy="129" r="8" fill="#C9F6FF"/>

    <rect x="218" y="118" width="26" height="22" rx="8" fill="#D6E9F7"/>
    <rect x="30" y="106" width="18" height="48" rx="8" fill="#0F2743"/>

    <circle cx="72" cy="98" r="4.5" fill="#D9F7FF"/>
    <circle cx="72" cy="160" r="4.5" fill="#D9F7FF"/>
    <circle cx="154" cy="98" r="4.5" fill="#D9F7FF"/>
    <circle cx="154" cy="160" r="4.5" fill="#D9F7FF"/>
  </g>
</svg>
